<?xml version="1.0" encoding="UTF-8" standalone="no"?>
<svg
   xmlns:dc="http://purl.org/dc/elements/1.1/"
   xmlns:cc="http://creativecommons.org/ns#"
   xmlns:rdf="http://www.w3.org/1999/02/22-rdf-syntax-ns#"
   xmlns:svg="http://www.w3.org/2000/svg"
   xmlns="http://www.w3.org/2000/svg"
   xmlns:sodipodi="http://sodipodi.sourceforge.net/DTD/sodipodi-0.dtd"
   xmlns:inkscape="http://www.inkscape.org/namespaces/inkscape"
   viewBox="0 0 443.78726 447.3584"
   version="1.1"
   id="svg3807"
   sodipodi:docname="babel-i18next-extract.svg"
   width="443.78726"
   height="447.3584"
   inkscape:version="0.92.4 5da689c313, 2019-01-14">
  <metadata
     id="metadata3813">
    <rdf:RDF>
      <cc:Work
         rdf:about="">
        <dc:format>image/svg+xml</dc:format>
        <dc:type
           rdf:resource="http://purl.org/dc/dcmitype/StillImage" />
        <dc:title></dc:title>
      </cc:Work>
    </rdf:RDF>
  </metadata>
  <defs
     id="defs3811" />
  <sodipodi:namedview
     pagecolor="#ffffff"
     bordercolor="#666666"
     borderopacity="1"
     objecttolerance="10"
     gridtolerance="10"
     guidetolerance="10"
     inkscape:pageopacity="0"
     inkscape:pageshadow="2"
     inkscape:window-width="1920"
     inkscape:window-height="1080"
     id="namedview3809"
     showgrid="false"
     fit-margin-top="0"
     fit-margin-left="0"
     fit-margin-right="0"
     fit-margin-bottom="0"
     inkscape:zoom="0.37319525"
     inkscape:cx="-71.497111"
     inkscape:cy="577.27644"
     inkscape:window-x="0"
     inkscape:window-y="0"
     inkscape:window-maximized="0"
     inkscape:current-layer="svg3807" />
  <g
     id="g3826"
     transform="matrix(4.9512622,0.72727347,-0.72727347,4.9512622,110.72845,-72.441401)">
    <g
       id="g3824">
      <path
         id="path3822"
         d="M 58.52,19.304 H 39.312 c -1.556,0 -2.821,-1.384 -2.821,-3.094 0,-1.711 1.265,-3.095 2.821,-3.095 H 58.52 c 1.563,0 2.826,1.384 2.826,3.095 0,1.71 -1.264,3.094 -2.826,3.094 z"
         inkscape:connector-curvature="0"
         style="fill:#004d40" />
    </g>
  </g>
  <path
     id="path3832"
     d="m 380.93336,140.56346 4.92873,-33.55471 c 0,0 43.92933,-3.13245 57.92518,49.48401 0,0 -36.69066,19.27893 -62.85391,-15.9293 z"
     inkscape:connector-curvature="0"
     style="fill:#004d40;stroke-width:5.00439072" />
  <path
     id="path3834"
     d="m 276.71424,125.25508 4.92873,-33.554698 c 0,0 -41.17791,-15.633562 -69.70351,30.737068 0,0 29.56218,29.01058 64.77478,2.81763 z"
     inkscape:connector-curvature="0"
     style="fill:#004d40;stroke-width:5.00439072" />
  <path
     d="m 261.78241,164.81149 c -1.32087,-2.65261 -12.40652,-8.77282 -33.71315,-21.27734 -1.35924,-3.28663 2.67214,-9.96881 12.04384,-19.94993 l 23.2597,-38.427358 c 4.28108,-11.526001 3.86346,-27.708718 -1.1794,-48.571314 l -1.94622,-4.636092 C 254.45885,17.944558 240.36781,9.6263051 217.92776,6.8477731 203.84252,2.6466711 181.65905,5.0369241 151.33102,13.871606 127.02547,23.876618 97.210604,43.048871 61.987026,71.19512 53.492172,82.676612 43.431448,94.571012 31.804853,106.87832 l 1.007847,2.42824 c 0.931851,-0.37455 2.018587,-1.28252 3.28337,-2.65044 1.569851,-0.65646 2.683006,-0.19976 3.293143,1.22316 l 2.05767,-2.18324 1.2257,-0.46719 0.444032,1.15223 c 0.444032,1.15224 -6.144057,10.74035 -19.911192,28.81066 l 2.090603,1.76382 -1.2257,0.4672 -3.019196,-0.0981 c 0.305068,0.71146 -0.781668,1.61943 -3.28337,2.65044 l 0.563816,1.276 3.957561,2.30592 c -0.93185,0.37455 -2.346815,0.49759 -4.221735,0.44258 -5.567942,2.32077 -9.854091,8.19487 -12.908747,17.71892 l 2.090604,1.76383 c 3.385419,-5.91319 5.482172,-8.99716 6.267098,-9.32539 l 1.428718,3.50701 c -0.784925,0.32823 -1.871662,1.2362 -3.28337,2.65044 l 4.447915,3.60509 c 3.834878,-8.07399 8.535383,-15.45172 14.101514,-22.13318 3.730659,-0.207 5.914628,0.31592 6.35866,1.46816 l 2.575164,-1.05417 C 53.67458,122.19356 69.211324,106.1498 85.828664,94.045862 l 1.00784,2.42824 c -1.83149,6.230918 -3.3485,9.616698 -4.55104,10.157358 0.70278,1.71677 1.77685,3.0742 3.29568,4.04911 1.28975,3.06624 -0.44185,27.03381 -5.14451,71.80606 -10.0035,103.7861 -21.266732,181.80172 -33.98294,233.94628 0.351389,0.85839 1.236196,1.87166 2.654419,3.03982 6.05178,-3.604 9.65614,-6.51717 10.932865,-8.61573 l 1.349464,-0.58698 1.007848,2.42824 2.354777,-0.98468 2.057667,-2.18325 c 0.30507,0.71146 1.22896,0.82401 2.87227,0.14439 l 1.00785,2.42824 c 0.98469,2.35478 0.74693,6.46795 -0.59348,12.46328 -1.69506,3.84574 -2.56829,11.06677 -2.54621,21.63992 l 0.44404,1.15224 2.35477,-0.98469 c 6.84973,-15.16257 11.19776,-29.29413 13.14071,-42.34438 28.005446,-18.76333 48.710976,-35.06366 62.263516,-48.94734 15.94206,-6.5606 27.06419,-14.83218 33.33925,-24.64466 l -0.56382,-1.276 -5.59182,3.78205 -1.34947,0.58697 -0.56381,-1.276 c 11.46882,-5.6349 18.93628,-10.89669 22.40639,-16.02893 17.73699,-25.45997 31.41148,-43.82413 41.00031,-55.16594 36.06825,-52.65727 35.71981,-78.70281 27.35118,-96.24802 z m -244.096431,-15.36116 -1.2257,0.46719 -0.938366,-2.20785 4.929942,-2.03886 0.444032,1.15224 c -0.784926,0.32823 -1.894823,1.16273 -3.209908,2.62728 z m 53.317545,255.44683 c -3.35539,-0.3959 -6.162161,-0.0763 -8.370013,0.86201 l -1.428719,-3.50701 c -0.586976,-1.34947 -0.07998,-2.55924 1.567317,-3.48241 1.569851,-0.65646 2.895432,0.21785 3.783496,2.52233 2.616419,-6.55915 4.133429,-9.94493 4.551049,-10.15736 l 3.06551,0.245 c 1.43451,7.62416 0.33837,12.08872 -3.16864,13.51744 z M 248.29562,44.763042 c -1.20254,0.540655 -4.92778,-2.565392 -10.95929,-9.144073 l -0.93837,-2.207853 c 2.28131,-0.961526 5.90992,2.094219 10.95929,9.144074 z m -12.1651,-26.289763 -0.26417,2.748507 -40.64787,-3.660796 c 24.2035,-6.742268 37.86534,-6.445891 40.91204,0.912289 z m -110.6361,178.075441 -4.92994,2.03886 -0.93836,-2.20786 4.92994,-2.03885 z m -28.779926,-76.94045 1.2257,-0.46719 1.42872,3.50701 c -1.15223,0.44403 -2.13909,2.6935 -2.98372,6.67495 l -1.00785,-2.42824 c 1.42039,-3.43609 1.94729,-5.8636 1.33715,-7.28653 z m -2.73112,28.48242 1.94621,4.6361 -1.2257,0.46719 -1.94621,-4.63609 z m -2.75755,10.72262 2.35478,-0.98469 c 1.03028,4.03645 0.60001,6.51427 -1.33716,7.28653 l -1.2257,0.4672 c 0.70893,-3.13102 0.79506,-5.41958 0.20808,-6.76904 z m -0.25005,13.80876 1.34946,-0.58698 0.44403,1.15224 -1.07298,4.53802 -2.35478,0.98469 -0.44403,-1.15224 c 2.35478,-0.98468 3.06298,-2.58095 2.0783,-4.93573 z m -0.57033,12.53674 1.16455,6.25552 -1.2257,0.46719 -2.39025,-5.78833 z m -4.27125,130.1656 c 0.97782,8.73732 0.53487,13.48053 -1.25536,14.20647 l -0.44404,-1.15223 c -1.7146,-3.90147 -1.15586,-8.27737 1.6994,-13.05424 z m -2.40181,18.76766 0.44403,1.15224 c 0.65646,1.56985 0.22292,2.75646 -1.37009,3.33946 l -0.44403,-1.15224 c -0.58698,-1.34946 -0.13028,-2.46262 1.37009,-3.33946 z m 8.51948,34.7079 3.70425,-1.57166 0.56381,1.276 c -0.93185,0.37455 -2.01859,1.28252 -3.28337,2.65044 l -2.35478,0.98469 c -0.54065,-1.20254 -0.0337,-2.41232 1.37009,-3.33947 z m 98.139946,-67.84999 c -18.11589,17.34148 -28.48169,28.52441 -31.04708,33.45219 -20.66645,15.39961 -30.62512,24.03126 -29.7794,25.94527 -18.0721,14.66245 -29.763476,24.97107 -35.120436,30.77895 -1.49639,0.6333 -3.88554,0.74041 -7.24093,0.34452 -1.68747,-4.07156 -0.84283,-8.053 2.34066,-12.04494 3.50701,-1.42872 7.12187,-2.00303 10.867726,-1.64948 3.19471,-3.18783 9.18496,-7.49932 17.92047,-12.83783 l -1.00784,-2.42824 -7.43165,3.06986 c 0.53812,-1.62341 6.79581,-7.3922 18.84654,-17.32953 l 3.70424,-1.57167 0.44403,1.15224 c -6.35287,2.64899 -9.35035,5.69389 -9.06989,9.40138 0.6333,1.49639 1.7233,1.87963 3.29315,1.22317 3.94923,-4.63718 5.79448,-7.23804 5.55889,-7.72912 8.77387,-4.70449 30.29762,-26.35094 64.59441,-64.86588 l 0.93836,2.20785 c 0.42087,1.07878 -2.20604,5.29907 -7.81125,12.88126 z m -58.07726,41.73174 c 6.00872,-2.45973 10.51055,-6.62501 13.55182,-12.34893 1.71678,-0.70278 2.88023,-0.34271 3.44007,1.17684 -2.91932,1.24344 -7.93539,5.57085 -14.85496,13.08283 l -1.2257,0.46719 z M 211.537,229.4298 187.22314,265.282 c -19.11614,23.39108 -29.54418,35.40129 -31.33441,36.12723 -31.70028,33.17353 -52.12463,51.64662 -61.126116,55.37294 l -1.34947,0.58698 c -0.19107,-4.70485 5.85092,-44.97274 18.203416,-121.07039 14.15182,-5.83466 34.94132,-19.8193 62.27185,-42.00424 l 7.43164,-3.06986 c 15.35437,-6.37531 28.15456,-7.01875 38.25763,-2.12753 l 1.94621,4.63609 c -0.55005,18.7492 -3.91122,30.63129 -9.98689,35.69658 z m -74.55747,-15.66483 5.07687,-2.08517 0.44403,1.15223 -5.07686,2.08518 z m 69.32787,-35.50625 3.70424,-1.57167 c 4.05889,0.57793 6.35866,1.46816 6.92247,2.74416 l 0.44403,1.15224 c -3.28662,1.35924 -7.00136,0.59205 -11.07074,-2.32473 z m -8.23976,-62.25595 c -2.10544,5.10582 -9.18461,14.92952 -21.26066,29.39764 -4.85648,2.0157 -21.17273,15.07464 -48.90242,39.32376 -1.84778,-0.22509 -3.63005,0.0137 -5.42029,0.73969 l -0.93837,-2.20785 c -1.82643,-4.51233 -1.59917,-10.96435 0.73208,-19.4527 -1.67118,-14.01069 -1.33862,-22.43426 1.09433,-25.2204 l 7.79892,-68.766238 c -1.47504,-3.65394 3.35176,-8.325499 14.48041,-14.014679 l 3.70424,-1.571663 1.3824,3.36009 c 10.97774,-5.399311 17.85281,-8.697523 20.5749,-9.798012 20.72507,-8.553133 33.18437,-7.716101 37.33156,2.364168 l 2.35478,-0.984687 -2.43657,-5.935254 2.57517,-1.054168 c 7.33285,1.484081 12.03227,4.60605 14.02481,9.389067 1.35923,3.286627 0.84283,8.052998 -1.47576,14.275952 -1.56985,0.656458 -2.89543,-0.217852 -3.7835,-2.522328 l -2.57516,1.054169 1.72836,7.531524 c -5.70364,19.566331 -10.94697,30.345769 -15.65652,32.315139 -2.48542,7.48701 -4.25394,11.35591 -5.33271,11.77678 z m 29.77291,37.0529 c -2.66708,-0.77443 -4.63862,-0.87973 -5.93779,-0.38938 l -1.42872,-3.50701 2.35478,-0.98469 6.35866,1.46816 c 0.75308,1.62015 0.29639,2.73331 -1.34693,3.41292 z m 23.41244,14.8289 c 2.65188,0.21388 4.37192,0.8023 4.96686,1.66467 l -1.08276,0.66442 0.0966,0.0503 c -0.22038,0.0695 -0.49107,0.23558 -0.6883,0.37853 l -1.32305,1.95164 z m 4.81233,9.62828 -0.52147,-0.88553 2.85381,-1.70737 0.52148,0.88553 z"
     id="path3803"
     inkscape:connector-curvature="0"
     sodipodi:nodetypes="cccccccccccccccsccccccccccccccccccccccccccccccccccccccccccccccccccccccccccccccccccccccccccccccccccccccccccccccccccccccccccccccccccccccccccccccccccccccccccccccccccccccccccccccccccccccccccccccccccccccccccccccccccccccccccc"
     style="stroke-width:0.7702685" />
  <path
     d="m 256.8886,161.4235 c -1.32087,-2.65261 -12.67136,-10.21959 -33.978,-22.72411 -1.35923,-3.28663 2.67215,-9.96882 12.04385,-19.94994 l 23.25969,-38.427354 c 4.28108,-11.526 3.86346,-27.708717 -1.1794,-48.571312 l -1.94621,-4.636092 C 249.30019,13.109794 235.20916,4.7915411 212.76911,2.0130081 198.68387,-2.1880929 176.50039,0.20216007 146.17237,9.0368421 121.86681,19.041854 92.051954,38.214107 56.82837,66.360356 48.333517,77.841846 38.272793,89.736242 26.646198,102.04355 l 1.007847,2.42824 c 0.931851,-0.37455 2.018587,-1.28251 3.28337,-2.65044 1.569851,-0.65645 2.683006,-0.19976 3.293143,1.22317 l 2.05767,-2.18325 1.2257,-0.46719 0.444032,1.15224 c 0.444031,1.15224 -6.144058,10.74035 -19.911192,28.81066 l 2.090603,1.76382 -1.2257,0.46719 -3.019196,-0.0981 c 0.305068,0.71147 -0.781668,1.61943 -3.28337,2.65044 l 0.563816,1.276 3.957561,2.30592 c -0.93185,0.37455 -2.346816,0.4976 -4.221735,0.44259 C 7.340805,141.4856 3.054656,147.3597 0,156.88376 l 2.090603,1.76382 c 3.38542,-5.91318 5.482173,-8.99716 6.267099,-9.32538 l 1.428718,3.50701 c -0.784925,0.32823 -1.871662,1.2362 -3.28337,2.65044 l 4.447915,3.60508 c 3.834878,-8.07399 8.535383,-15.45171 14.101513,-22.13318 3.73066,-0.207 5.914629,0.31593 6.35866,1.46816 l 2.575165,-1.05417 C 48.515925,117.35879 64.052672,101.31503 80.670004,89.211102 l 1.00785,2.42824 c -1.83149,6.23091 -3.34851,9.616698 -4.55105,10.157348 0.70278,1.71678 1.77686,3.07421 3.29568,4.04912 1.28976,3.06624 -0.44185,27.0338 -5.1445,71.80606 -10.003505,103.78609 -21.266737,181.80172 -33.982945,233.94628 0.351389,0.85839 1.236195,1.87166 2.654418,3.03982 6.051781,-3.604 9.656141,-6.51717 10.932866,-8.61573 l 1.349464,-0.58698 1.007848,2.42824 2.354777,-0.98469 2.05767,-2.18324 c 0.305068,0.71146 1.228957,0.82401 2.872271,0.14439 l 1.007847,2.42824 c 0.984687,2.35477 0.746932,6.46794 -0.593483,12.46327 -1.695062,3.84574 -2.568284,11.06677 -2.546204,21.63993 l 0.444032,1.15224 2.354777,-0.98469 c 6.849732,-15.16257 11.197752,-29.29413 13.140702,-42.34439 28.005446,-18.76332 48.710976,-35.06366 62.263516,-48.94734 15.94206,-6.56059 27.0642,-14.83218 33.33925,-24.64466 l -0.56381,-1.276 -5.59183,3.78205 -1.34946,0.58698 -0.56382,-1.276 c 11.46882,-5.6349 18.93629,-10.89669 22.40639,-16.02893 17.737,-25.45998 31.41149,-43.82414 41.00032,-55.16594 18.91239,-25.83055 29.36865,-48.51053 31.24501,-67.92017 1.15109,-13.04647 -2.16282,-20.81166 -3.62899,-26.88108 z m -244.361276,-16.80794 -1.2257,0.4672 -0.938366,-2.20786 4.929941,-2.03885 0.444032,1.15224 c -0.784925,0.32823 -1.894822,1.16273 -3.209907,2.62727 z m 53.31754,255.44684 c -3.355386,-0.3959 -6.162156,-0.0764 -8.370008,0.86201 l -1.428719,-3.50702 c -0.586976,-1.34946 -0.07998,-2.55924 1.567317,-3.4824 1.569851,-0.65646 2.895432,0.21785 3.783496,2.52232 2.616416,-6.55914 4.133431,-9.94493 4.551045,-10.15735 l 3.065519,0.24499 c 1.43451,7.62417 0.33837,12.08873 -3.16865,13.51745 z M 243.13696,39.928278 c -1.20254,0.540654 -4.92777,-2.565392 -10.95929,-9.144074 l -0.93837,-2.207852 c 2.28132,-0.961526 5.90993,2.094218 10.9593,9.144073 z m -12.16509,-26.289763 -0.26418,2.748507 -40.64787,-3.660796 c 24.20351,-6.7422679 37.86534,-6.4458919 40.91205,0.912289 z m -110.6361,178.075445 -4.92994,2.03885 -0.93837,-2.20785 4.92994,-2.03885 z m -28.779926,-76.94045 1.2257,-0.4672 1.42872,3.50702 c -1.15224,0.44403 -2.1391,2.6935 -2.98373,6.67495 l -1.00785,-2.42824 c 1.42039,-3.43609 1.9473,-5.86361 1.33716,-7.28653 z m -2.73112,28.48242 1.94621,4.63609 -1.2257,0.46719 -1.94621,-4.63609 z m -2.75755,10.72262 2.35477,-0.98469 c 1.03029,4.03645 0.60001,6.51427 -1.33715,7.28653 l -1.2257,0.46719 c 0.70893,-3.13102 0.79505,-5.41957 0.20808,-6.76903 z m -0.25006,13.80876 1.34947,-0.58698 0.44403,1.15224 -1.07298,4.53802 -2.35478,0.98469 -0.44403,-1.15224 c 2.35477,-0.98469 3.06298,-2.58096 2.07829,-4.93573 z m -0.57032,12.53674 1.16454,6.25552 -1.2257,0.46719 -2.39024,-5.78833 z m -4.27125,130.1656 c 0.97781,8.73732 0.53487,13.48053 -1.25537,14.20647 l -0.44403,-1.15224 c -1.71461,-3.90147 -1.15586,-8.27736 1.6994,-13.05423 z m -2.40181,18.76765 0.44403,1.15224 c 0.65646,1.56985 0.22292,2.75647 -1.37009,3.33947 l -0.44403,-1.15224 c -0.58698,-1.34947 -0.13028,-2.46262 1.37009,-3.33947 z m 8.51948,34.70791 3.70424,-1.57167 0.56382,1.27601 c -0.93185,0.37455 -2.01859,1.28251 -3.28337,2.65043 l -2.35478,0.98469 c -0.54066,-1.20254 -0.0337,-2.41232 1.37009,-3.33946 z m 98.139936,-67.84999 c -18.11589,17.34147 -28.48168,28.52441 -31.04707,33.45218 -20.66645,15.39961 -30.62513,24.03127 -29.7794,25.94527 -18.07211,14.66245 -29.763476,24.97108 -35.120436,30.77895 -1.49639,0.6333 -3.88555,0.74042 -7.24094,0.34452 -1.68746,-4.07155 -0.84283,-8.053 2.34066,-12.04494 3.50702,-1.42872 7.12187,-2.00303 10.86773,-1.64947 3.19471,-3.18784 9.184966,-7.49932 17.920476,-12.83783 l -1.00785,-2.42824 -7.43164,3.06986 c 0.53812,-1.62341 6.79581,-7.3922 18.84653,-17.32954 l 3.70424,-1.57166 0.44404,1.15224 c -6.35287,2.64899 -9.35035,5.69388 -9.06989,9.40138 0.6333,1.49639 1.72329,1.87962 3.29314,1.22317 3.94924,-4.63718 5.79448,-7.23804 5.55889,-7.72912 8.77387,-4.70449 30.29762,-26.35094 64.59441,-64.86588 l 0.93837,2.20785 c 0.42087,1.07877 -2.20604,5.29906 -7.81126,12.88126 z m -58.07725,41.73173 c 6.00871,-2.45972 10.51055,-6.62501 13.55181,-12.34892 1.71678,-0.70278 2.88024,-0.34271 3.44007,1.17684 -2.91931,1.24343 -7.93538,5.57084 -14.85496,13.08283 l -1.2257,0.46719 z m 79.22245,-113.25192 -24.29071,35.92566 c -19.11613,23.39109 -29.54417,35.40129 -31.40787,36.1504 -31.70028,33.17353 -52.124616,51.64662 -61.126116,55.37294 l -1.34946,0.58698 c -0.19108,-4.70485 5.85091,-44.97275 18.203406,-121.07039 14.15183,-5.83466 34.94132,-19.8193 62.27185,-42.00424 l 7.43165,-3.06986 c 15.35436,-6.37531 28.15455,-7.01875 38.25762,-2.12753 l 1.94621,4.63609 c -0.49975,18.65257 -3.86092,30.53467 -9.93658,35.59995 z m -74.55747,-15.66482 5.07687,-2.08518 0.44403,1.15224 -5.07687,2.08518 z m 69.32786,-35.50626 3.70424,-1.57166 c 4.05889,0.57793 6.35866,1.46816 6.92248,2.74416 l 0.44403,1.15224 c -3.28663,1.35923 -7.00136,0.59204 -11.07075,-2.32474 z m -8.23976,-62.25594 c -2.10544,5.10582 -9.1846,14.92952 -21.26066,29.39764 -4.85647,2.01569 -21.17272,15.07464 -48.90241,39.32375 -1.84778,-0.22509 -3.63006,0.0138 -5.4203,0.7397 l -0.93836,-2.20785 c -1.82643,-4.51233 -1.59917,-10.96436 0.73208,-19.4527 -1.67119,-14.01069 -1.33862,-22.43426 1.09432,-25.22041 l 7.79893,-68.766233 c -1.47504,-3.653939 3.35176,-8.325499 14.48041,-14.014678 l 3.70424,-1.571663 1.38239,3.36009 c 10.97775,-5.399311 17.85281,-8.697523 20.5749,-9.798013 20.72508,-8.553132 33.18437,-7.716101 37.33157,2.364169 l 2.35477,-0.984687 -2.43656,-5.935254 2.57516,-1.054169 c 7.33285,1.484082 12.03228,4.606051 14.02481,9.389067 1.35924,3.286628 0.84283,8.052999 -1.47575,14.275953 -1.56986,0.656458 -2.89544,-0.217853 -3.7835,-2.522328 l -2.57516,1.054169 1.72836,7.531523 c -5.70364,19.566336 -10.94697,30.345766 -15.65653,32.315136 -2.48541,7.487018 -4.25393,11.355918 -5.33271,11.776788 z m 29.77292,37.0529 c -2.66709,-0.77443 -4.63863,-0.87974 -5.93779,-0.38938 l -1.42872,-3.50702 2.35478,-0.98469 6.35866,1.46816 c 0.75308,1.62016 0.29638,2.73331 -1.34693,3.41293 z m 23.41244,14.8289 c 2.65188,0.21387 4.37191,0.80229 4.96685,1.66466 l -1.08276,0.66442 0.0966,0.0503 c -0.22039,0.0695 -0.49108,0.23559 -0.68831,0.37853 l -1.32304,1.95164 z m 4.81233,9.62828 -0.52148,-0.88553 2.85382,-1.70737 0.52147,0.88553 z"
     id="path3805"
     inkscape:connector-curvature="0"
     style="opacity:0.98000004;fill:#f9dc3e;stroke-width:0.7702685"
     sodipodi:nodetypes="cccccccccccccccscccccccccccccccccccccccccccccccccccccccccccccccccccccccccccccccccccccccccccccccccccccccccccccccccccccccccccccccccccccccccccccccccccccccccccccccccccccccccccccccccccccccccccccccccccccccccccccccccccccccccccc" />
  <path
     id="path3820"
     d="m 383.55841,73.656231 -10.36292,70.550529 49.37049,215.26576 c 0,0 16.89703,53.2854 -54.1062,55.23312 L 210.53927,391.50926 c 0,0 -63.53081,-16.21082 -40.55906,-65.02594 L 283.7955,131.07511 294.15842,60.524581 Z"
     inkscape:connector-curvature="0"
     style="fill:#009688;stroke-width:5.00439072" />
  <path
     id="path3828"
     d="m 343.22387,185.40807 c 10.20455,1.49891 17.0629,12.6933 15.24908,25.04175 -1.80582,12.29398 -11.60221,21.0673 -21.80181,19.56912 -10.22931,-1.50255 -17.05926,-12.71806 -15.25344,-25.01204 1.81455,-12.3534 11.57686,-21.10138 21.80617,-19.59883 z"
     inkscape:connector-curvature="0"
     style="fill:#ffffff;stroke-width:5.00439072" />
  <ellipse
     id="ellipse3830"
     ry="19.026693"
     rx="15.783848"
     cy="173.05963"
     cx="309.03946"
     style="fill:#ffffff;stroke-width:5.00439072"
     transform="rotate(8.3562203)" />
  <path
     id="path3836"
     d="M 386.11942,283.18438 C 320.07826,251.55701 260.21352,254.53386 230.49914,259.0664 l -38.81022,64.804 c -18.95958,39.30346 34.14422,52.63724 34.14422,52.63724 l 131.89667,19.37383 c 59.2508,-1.27646 44.93198,-44.32493 44.93198,-44.32493 z"
     inkscape:connector-curvature="0"
     style="fill:#ffffff;stroke-width:5.00439072" />
  <path
     id="path3838"
     d="m 282.63445,294.17968 c -1.09309,7.44175 -11.9841,12.02805 -24.30284,10.21859 -12.31874,-1.80945 -21.40113,-9.32958 -20.30803,-16.77132 1.09745,-7.47146 11.95511,-12.03737 24.27385,-10.22791 12.32297,1.81513 21.43447,9.30919 20.33702,16.78064 z"
     inkscape:connector-curvature="0"
     style="fill:#004d40;stroke-width:5.00439072" />
  <path
     id="path3840"
     d="m 362.00813,305.8386 c -1.09309,7.44175 -11.98409,12.02805 -24.27313,10.22296 -12.3534,-1.81455 -21.43083,-9.33395 -20.33774,-16.77569 1.09746,-7.47146 11.95017,-12.03809 24.30357,-10.22355 12.29325,1.81077 21.40476,9.30483 20.3073,16.77628 z"
     inkscape:connector-curvature="0"
     style="fill:#004d40;stroke-width:5.00439072" />
</svg>
